<?xml version="1.0" encoding="UTF-8"?>
<!DOCTYPE svg PUBLIC "-//W3C//DTD SVG 1.1//EN" "http://www.w3.org/Graphics/SVG/1.1/DTD/svg11.dtd">
<!-- Creator: CorelDRAW 2021 (64-Bit) -->
<svg xmlns="http://www.w3.org/2000/svg" xml:space="preserve" width="24.0185mm" height="21.5332mm" version="1.1" style="shape-rendering:geometricPrecision; text-rendering:geometricPrecision; image-rendering:optimizeQuality; fill-rule:evenodd; clip-rule:evenodd"
viewBox="0 0 2387.68 2140.62"
 xmlns:xlink="http://www.w3.org/1999/xlink"
 xmlns:xodm="http://www.corel.com/coreldraw/odm/2003">
 <defs>
  <style type="text/css">
   <![CDATA[
    .fil0 {fill:dodgerblue;fill-rule:nonzero}
    .fil3 {fill:#4EC49D;fill-rule:nonzero}
    .fil5 {fill:#94C0EB;fill-rule:nonzero}
    .fil1 {fill:#BEBCBF;fill-rule:nonzero}
    .fil4 {fill:orangered;fill-rule:nonzero}
    .fil2 {fill:#FFE75C;fill-rule:nonzero}
   ]]>
  </style>
 </defs>
 <g id="Layer_x0020_1">
  <metadata id="CorelCorpID_0Corel-Layer"/>
  <path class="fil0" d="M2387.68 278.94c0,-102.12 -82.78,-184.91 -184.89,-184.91 -102.11,0 -184.89,82.79 -184.89,184.91 0,102.12 82.78,184.9 184.89,184.9 102.11,0 184.89,-82.78 184.89,-184.9z"/>
  <path class="fil1" d="M369.81 1917.72c0,-102.1 -82.78,-184.89 -184.9,-184.89 -102.11,0 -184.9,82.79 -184.9,184.89 0,102.15 82.79,184.9 184.9,184.9 102.12,0 184.9,-82.75 184.9,-184.9z"/>
  <path class="fil2" d="M1510.73 0l-1389.72 0c-66.83,0 -121,54.17 -121,120.98l0 234.2c0,66.83 54.17,120.99 121,120.99l1389.72 0c97.29,0 176.17,-78.89 176.17,-176.2l0 -123.76c0,-97.34 -78.88,-176.21 -176.17,-176.21z"/>
  <path class="fil3" d="M2252.88 1664.44l-855.24 0c-97.34,0 -176.22,78.9 -176.22,176.21l0 123.77c0,97.33 78.88,176.2 176.22,176.2l855.24 0c65.43,0 118.51,-53.02 118.51,-118.5l0 -239.2c0,-65.44 -53.08,-118.49 -118.51,-118.49z"/>
  <path class="fil4" d="M1135.47 585.42l-1022.26 0c-62.53,0 -113.22,50.69 -113.22,113.21l0 212.63c0,62.52 50.69,113.21 113.22,113.21l1022.26 0c91.92,0 166.44,-74.52 166.44,-166.43l0 -106.17c0,-91.92 -74.52,-166.44 -166.44,-166.44z"/>
  <path class="fil1" d="M2294.11 686.74l-357.3 0c-71.8,0 -129.98,58.21 -129.98,130.02l0 40.54c0,71.8 58.17,130.02 129.98,130.02l357.3 0c51.7,0 93.57,-41.9 93.57,-93.57l0 -113.43c0,-51.67 -41.87,-93.57 -93.57,-93.57z"/>
  <path class="fil5" d="M2233.69 1159.55l-2127.18 0c-58.82,0 -106.51,47.68 -106.51,106.5l0 178.75c0,58.82 47.69,106.51 106.51,106.51l2127.18 0c85.09,0 154,-68.95 154,-154l0 -83.76c0,-85.06 -68.91,-154 -154,-154z"/>
 </g>
</svg>