<?xml version="1.0" encoding="UTF-8"?>
<!DOCTYPE svg PUBLIC "-//W3C//DTD SVG 1.1//EN" "http://www.w3.org/Graphics/SVG/1.1/DTD/svg11.dtd">
<!-- Creator: CorelDRAW -->
<svg xmlns="http://www.w3.org/2000/svg" xml:space="preserve" width="0.9275mm" height="1.1522mm" version="1.1" style="shape-rendering:geometricPrecision; text-rendering:geometricPrecision; image-rendering:optimizeQuality; fill-rule:evenodd; clip-rule:evenodd"
viewBox="0 0 0.18 0.23"
 xmlns:xlink="http://www.w3.org/1999/xlink"
 xmlns:xodm="http://www.corel.com/coreldraw/odm/2003">
 <defs>
  <style type="text/css">
   <![CDATA[
    .fil0 {fill:#BEBCBF;fill-rule:nonzero}
   ]]>
  </style>
 </defs>
 <g id="Layer_x0020_1">
  <metadata id="CorelCorpID_0Corel-Layer"/>
  <path class="fil0" d="M0.16 0.23l-0.14 0c-0.01,0 -0.02,-0.01 -0.02,-0.02l0 -0.11c0,-0.01 0.01,-0.02 0.02,-0.02l0.01 0 0 -0.02c0,-0.03 0.03,-0.06 0.06,-0.06 0.03,0 0.06,0.03 0.06,0.06l0 0.02 0.01 0c0.01,0 0.02,0.01 0.02,0.02l0 0.11c0,0.01 -0.01,0.02 -0.02,0.02zm-0.07 -0.1c-0.01,0 -0.03,0.01 -0.03,0.03 0,0.01 0.01,0.02 0.02,0.02l0 0.03 0 0 0.01 0 0 -0 0 -0.03c0.01,-0 0.02,-0.01 0.02,-0.02 0,-0.01 -0.01,-0.03 -0.03,-0.03zm-0 -0.1c-0.02,0 -0.03,0.01 -0.03,0.03l0 0.02 0.06 0 0 -0.02c0,-0.02 -0.01,-0.03 -0.03,-0.03z"/>
 </g>
</svg>