<?xml version="1.0" encoding="UTF-8"?>
<!DOCTYPE svg PUBLIC "-//W3C//DTD SVG 1.1//EN" "http://www.w3.org/Graphics/SVG/1.1/DTD/svg11.dtd">
<!-- Creator: CorelDRAW 2021 (64-Bit) -->
<svg xmlns="http://www.w3.org/2000/svg" xml:space="preserve" width="24.0185mm" height="21.5332mm" version="1.1" style="shape-rendering:geometricPrecision; text-rendering:geometricPrecision; image-rendering:optimizeQuality; fill-rule:evenodd; clip-rule:evenodd"
viewBox="0 0 1264.34 1133.51"
 xmlns:xlink="http://www.w3.org/1999/xlink"
 xmlns:xodm="http://www.corel.com/coreldraw/odm/2003">
 <defs>
  <style type="text/css">
   <![CDATA[
    .fil0 {fill:#FEFEFE;fill-rule:nonzero}
   ]]>
  </style>
 </defs>
 <g id="Layer_x0020_1">
  <metadata id="CorelCorpID_0Corel-Layer"/>
  <path class="fil0" d="M1264.34 147.7c0,-54.08 -43.83,-97.92 -97.91,-97.92 -54.07,0 -97.91,43.84 -97.91,97.92 0,54.08 43.83,97.91 97.91,97.91 54.07,0 97.91,-43.83 97.91,-97.91z"/>
  <path class="fil0" d="M195.82 1015.48c0,-54.07 -43.83,-97.91 -97.91,-97.91 -54.07,0 -97.91,43.84 -97.91,97.91 0,54.09 43.84,97.91 97.91,97.91 54.08,0 97.91,-43.82 97.91,-97.91z"/>
  <path class="fil0" d="M799.97 0l-735.89 0c-35.39,0 -64.07,28.68 -64.07,64.06l0 124.01c0,35.39 28.68,64.07 64.07,64.07l735.89 0c51.52,0 93.29,-41.78 93.29,-93.3l0 -65.53c0,-51.55 -41.77,-93.31 -93.29,-93.31z"/>
  <path class="fil0" d="M1192.96 881.36l-452.87 0c-51.55,0 -93.32,41.78 -93.32,93.31l0 65.54c0,51.54 41.77,93.3 93.32,93.3l452.87 0c34.65,0 62.75,-28.07 62.75,-62.75l0 -126.66c0,-34.65 -28.1,-62.74 -62.75,-62.74z"/>
  <path class="fil0" d="M601.26 309.99l-541.31 0c-33.11,0 -59.95,26.84 -59.95,59.95l0 112.59c0,33.11 26.84,59.95 59.95,59.95l541.31 0c48.68,0 88.14,-39.46 88.14,-88.13l0 -56.22c0,-48.68 -39.46,-88.14 -88.14,-88.14z"/>
  <path class="fil0" d="M1214.79 363.64l-189.2 0c-38.02,0 -68.83,30.83 -68.83,68.85l0 21.47c0,38.02 30.8,68.85 68.83,68.85l189.2 0c27.38,0 49.55,-22.19 49.55,-49.55l0 -60.06c0,-27.36 -22.17,-49.55 -49.55,-49.55z"/>
  <path class="fil0" d="M1182.79 614.01l-1126.39 0c-31.15,0 -56.4,25.25 -56.4,56.39l0 94.65c0,31.15 25.25,56.4 56.4,56.4l1126.39 0c45.05,0 81.54,-36.51 81.54,-81.54l0 -44.35c0,-45.04 -36.49,-81.54 -81.54,-81.54z"/>
 </g>
</svg>