<?xml version="1.0" encoding="UTF-8"?>
<!DOCTYPE svg PUBLIC "-//W3C//DTD SVG 1.1//EN" "http://www.w3.org/Graphics/SVG/1.1/DTD/svg11.dtd">
<!-- Creator: CorelDRAW -->
<svg xmlns="http://www.w3.org/2000/svg" xml:space="preserve" width="2.0685mm" height="2.9875mm" version="1.1" style="shape-rendering:geometricPrecision; text-rendering:geometricPrecision; image-rendering:optimizeQuality; fill-rule:evenodd; clip-rule:evenodd"
viewBox="0 0 19.73 28.5"
 xmlns:xlink="http://www.w3.org/1999/xlink"
 xmlns:xodm="http://www.corel.com/coreldraw/odm/2003">
 <defs>
  <style type="text/css">
   <![CDATA[
    .fil0 {fill:#FEFEFE;fill-rule:nonzero}
   ]]>
  </style>
 </defs>
 <g id="Layer_x0020_1">
  <metadata id="CorelCorpID_0Corel-Layer"/>
  <g id="_2372617315920">
   <path class="fil0" d="M8.82 23.35l0.06 -0.54 0.12 -1.1 0.24 -2.21 0.02 -0.2c-0.47,-0.23 -0.79,-0.71 -0.79,-1.26 0,-0.77 0.63,-1.4 1.4,-1.4 0.77,0 1.4,0.63 1.4,1.4 0,0.55 -0.32,1.03 -0.79,1.26l0.02 0.2 0.12 1.1 0.12 1.1 0.12 1.1 0.06 0.54 -2.1 0zm9.78 -11.86l-17.46 0c-0.63,0 -1.14,0.51 -1.14,1.14l0 12.47c0,1.88 1.53,3.41 3.41,3.41l12.92 0c1.88,0 3.41,-1.53 3.41,-3.41l0 -12.47c0,-0.63 -0.51,-1.14 -1.14,-1.14z"/>
   <path class="fil0" d="M17.25 7.38l0 4.11 -3.31 0 0 -4.11c0,-2.24 -1.82,-4.07 -4.07,-4.07 -2.24,0 -4.07,1.82 -4.07,4.07l0 4.11 -3.31 0 0 -4.11c0,-4.08 3.3,-7.38 7.38,-7.38 4.08,0 7.38,3.3 7.38,7.38z"/>
  </g>
 </g>
</svg>
