<?xml version="1.0" encoding="UTF-8"?>
<!DOCTYPE svg PUBLIC "-//W3C//DTD SVG 1.1//EN" "http://www.w3.org/Graphics/SVG/1.1/DTD/svg11.dtd">
<!-- Creator: CorelDRAW -->
<svg xmlns="http://www.w3.org/2000/svg" xml:space="preserve" width="2.0687mm" height="2.9881mm" version="1.1" style="shape-rendering:geometricPrecision; text-rendering:geometricPrecision; image-rendering:optimizeQuality; fill-rule:evenodd; clip-rule:evenodd"
viewBox="0 0 8.13 11.74"
 xmlns:xlink="http://www.w3.org/1999/xlink"
 xmlns:xodm="http://www.corel.com/coreldraw/odm/2003">
 <defs>
  <style type="text/css">
   <![CDATA[
    .fil0 {fill:#FEFEFE;fill-rule:nonzero}
   ]]>
  </style>
 </defs>
 <g id="Layer_x0020_1">
  <metadata id="CorelCorpID_0Corel-Layer"/>
  <g id="_2370697424192">
   <path class="fil0" d="M3.63 9.62l0.02 -0.22 0.05 -0.45 0.1 -0.91 0.01 -0.08c-0.19,-0.09 -0.33,-0.29 -0.33,-0.52 0,-0.32 0.26,-0.58 0.58,-0.58 0.32,0 0.58,0.26 0.58,0.58 0,0.23 -0.13,0.43 -0.33,0.52l0.01 0.08 0.05 0.46 0.05 0.46 0.05 0.45 0.02 0.22 -0.86 0zm4.03 -4.89l-7.19 0c-0.26,0 -0.47,0.21 -0.47,0.47l0 5.14c0,0.78 0.63,1.4 1.4,1.4l5.32 0c0.78,0 1.4,-0.63 1.4,-1.4l0 -5.14c0,-0.26 -0.21,-0.47 -0.47,-0.47z"/>
   <path class="fil0" d="M7.11 3.07l0 0.07c0,0.38 -0.31,0.68 -0.68,0.68l0 0c-0.38,0 -0.68,-0.31 -0.68,-0.68l0 -0.08c0,-0.92 -0.74,-1.69 -1.66,-1.7 -0.93,-0.01 -1.69,0.75 -1.69,1.68l0 1.69 -1.37 0 0 -1.69c0,-1.68 1.37,-3.05 3.05,-3.04 1.68,0.01 3.03,1.39 3.03,3.07z"/>
  </g>
 </g>
</svg>